<?xml version="1.0" standalone="no"?><!DOCTYPE svg PUBLIC "-//W3C//DTD SVG 1.1//EN" "http://www.w3.org/Graphics/SVG/1.1/DTD/svg11.dtd"><svg class="icon" height="512" viewBox="0 0 1024 1024" version="1.1" xmlns="http://www.w3.org/2000/svg"><path d="M398.918 625.543c-10.155 8.842-21.291 17.116-33.402 24.805a620.5 620.5 0 0 0-34.875 23.822c-23.254 15.718-41.59 34.222-55.012 55.505-13.431 21.29-20.308 46.171-20.63 74.66h234.787v-50.101H322.291c2.287-7.528 6.546-14.65 12.771-21.367 6.217-6.707 13.508-13.178 21.857-19.402 8.351-6.216 17.438-12.44 27.262-18.665a761.54 761.54 0 0 0 29.471-19.647 368.44 368.44 0 0 0 28.489-22.104c9.164-7.86 17.353-16.454 24.56-25.787 7.198-9.332 12.932-19.563 17.192-30.699 4.25-11.129 6.384-23.577 6.384-37.33 0-11.129-1.803-22.84-5.402-35.12-3.607-12.279-9.747-23.653-18.42-34.137-8.679-10.475-20.061-19.156-34.137-26.033-14.084-6.876-31.605-10.314-52.557-10.314-19.325 0-36.27 3.361-50.838 10.069-14.575 6.715-26.938 15.963-37.084 27.752-10.155 11.788-17.767 25.787-22.84 41.995-5.081 16.21-7.613 33.817-7.613 52.804h55.995c0.323-12.11 1.55-23.408 3.684-33.892 2.127-10.475 5.403-19.562 9.825-27.26 4.42-7.69 10.315-13.754 17.683-18.175 7.367-4.42 16.615-6.63 27.752-6.63 12.11 0 21.935 2.048 29.471 6.14 7.529 4.098 13.423 9.17 17.683 15.226 4.25 6.063 7.122 12.61 8.595 19.647 1.473 7.046 2.21 13.677 2.21 19.892-0.33 13.431-3.769 25.298-10.315 35.613-6.556 10.313-14.905 19.892-25.051 28.733z m255.907-50.591a532.993 532.993 0 0 0-40.523 71.713c-11.627 24.889-21.121 50.592-28.489 77.116s-12.034 53.378-13.999 80.555h61.399c2.286-31.105 6.876-60.247 13.752-87.431 6.876-27.177 15.796-52.963 26.77-77.362 10.967-24.39 23.822-47.477 38.558-69.259 14.735-21.772 31.105-42.809 49.118-63.116v-46.663H526.133v50.101h178.3c-17.681 19.977-34.22 41.428-49.608 64.346zM838.026 126.409H778.58V79.238c0-6.723-5.642-12.254-12.603-12.254h-34.219c-7.118 0-12.602 5.486-12.602 12.254v47.171H303.182V79.238c0-6.723-5.642-12.254-12.602-12.254h-34.22c-7.118 0-12.602 5.486-12.602 12.254v47.171h-59.446c-65.738 0-118.829 53.169-118.829 118.756v594.434c0 65.449 53.201 118.756 118.829 118.756h653.715c65.739 0 118.829-53.169 118.829-118.756V245.165c-0.001-65.449-53.203-118.756-118.83-118.756zM897.43 839.6c0 32.806-26.523 59.332-59.403 59.332H184.311c-32.757 0-59.403-26.652-59.403-59.332V364.108h772.521V839.6z m0-534.917H124.908v-59.518c0-32.806 26.523-59.332 59.403-59.332h59.446v47.172c0 6.723 5.642 12.254 12.602 12.254h34.22c7.118 0 12.602-5.486 12.602-12.254v-47.172h415.973v47.172c0 6.723 5.643 12.254 12.602 12.254h34.22c7.119 0 12.602-5.486 12.602-12.254v-47.172h59.446c32.757 0 59.403 26.652 59.403 59.332v59.518z" /></svg>